<?xml version="1.0" encoding="UTF-8" standalone="no"?>
<!-- Created with Inkscape (http://www.inkscape.org/) -->

<svg
   xmlns:dc="http://purl.org/dc/elements/1.1/"
   xmlns:cc="http://creativecommons.org/ns#"
   xmlns:rdf="http://www.w3.org/1999/02/22-rdf-syntax-ns#"
   xmlns:svg="http://www.w3.org/2000/svg"
   xmlns="http://www.w3.org/2000/svg"
   xmlns:sodipodi="http://sodipodi.sourceforge.net/DTD/sodipodi-0.dtd"
   xmlns:inkscape="http://www.inkscape.org/namespaces/inkscape"
   width="438.01999"
   height="292.10251"
   id="svg3227"
   version="1.1"
   inkscape:version="0.48.4 r9939"
   sodipodi:docname="New document 6">
  <defs
     id="defs3229" />
  <sodipodi:namedview
     id="base"
     pagecolor="#ffffff"
     bordercolor="#666666"
     borderopacity="1.0"
     inkscape:pageopacity="0.0"
     inkscape:pageshadow="2"
     inkscape:zoom="0.35"
     inkscape:cx="-185.27571"
     inkscape:cy="146.05501"
     inkscape:document-units="px"
     inkscape:current-layer="layer1"
     showgrid="false"
     fit-margin-top="0"
     fit-margin-left="0"
     fit-margin-right="0"
     fit-margin-bottom="0"
     inkscape:window-width="1680"
     inkscape:window-height="984"
     inkscape:window-x="0"
     inkscape:window-y="27"
     inkscape:window-maximized="1" />
  <metadata
     id="metadata3232">
    <rdf:RDF>
      <cc:Work
         rdf:about="">
        <dc:format>image/svg+xml</dc:format>
        <dc:type
           rdf:resource="http://purl.org/dc/dcmitype/StillImage" />
        <dc:title></dc:title>
      </cc:Work>
    </rdf:RDF>
  </metadata>
  <g
     inkscape:label="Layer 1"
     inkscape:groupmode="layer"
     id="layer1"
     transform="translate(-155.99,-386.31093)">
    <polygon
       transform="translate(155.99,216.14343)"
       points="125.15,362.07 125.78,360.48 129.6,345.87 129.6,345.39 129.91,344.44 130.23,343.01 130.39,341.58 131.02,338.56 131.18,337.14 131.5,335.71 131.98,331.42 132.3,329.99 132.46,328.4 132.77,326.97 132.77,325.7 133.09,323 133.09,321.41 133.41,318.56 133.41,317.28 133.57,315.7 133.57,304.9 133.41,303.63 133.41,300.45 133.09,298.39 133.09,297.12 132.77,295.85 132.77,294.73 132.46,292.19 132.14,290.92 131.66,287.11 131.02,284.89 130.87,283.62 130.23,281.4 130.07,280.28 129.6,279.33 129.44,278.22 129.44,278.22 129.6,279.33 130.07,280.28 130.23,281.4 131.02,283.62 131.02,284.89 131.66,287.11 131.98,289.65 132.46,290.92 132.77,293.31 132.77,294.58 133.09,295.69 133.41,298.39 133.41,299.66 133.57,300.45 133.57,300.93 133.72,302.2 133.72,303.63 134.04,306.32 134.04,310.3 134.2,311.57 134.2,317.28 134.04,318.72 134.04,323.16 133.72,325.7 133.72,327.13 133.57,328.56 133.57,330.15 133.41,331.58 133.41,333.01 133.09,334.44 133.09,335.86 132.77,337.45 132.77,338.88 131.66,345.71 131.66,346.19 130.07,355.4 129.6,356.83 129.44,358.25 127.85,364.45 127.69,365.72 125.94,365.56 124.36,364.92 "
       style="fill-rule:evenodd"
       id="polygon25" />
    <polygon
       transform="translate(155.99,216.14343)"
       points="127.69,365.72 126.9,368.1 126.9,368.58 113.24,406.21 110.7,410.5 110.7,410.98 99.738,428.92 98.309,430.67 97.038,432.58 85.604,445.28 82.585,447.98 82.109,448.29 81.156,449.25 77.821,451.79 76.233,452.74 73.216,454.96 66.704,458.46 60.034,460.68 59.875,460.84 54.634,461.95 49.075,462.27 45.74,461.95 43.834,461.95 40.181,461.16 40.022,461 39.864,461 44.311,445.76 46.693,446.55 48.916,446.87 49.87,446.87 51.934,447.18 53.204,447.02 54.316,447.02 56.698,446.71 56.698,446.71 61.622,445.6 64.321,444.48 65.592,444.17 66.863,443.37 69.563,442.1 76.709,437.66 85.286,430.51 90.844,424.79 90.844,424.63 92.115,423.05 93.703,421.46 104.18,407.17 104.5,407.01 115.46,387.32 122.61,370.16 123.4,367.46 123.56,367.15 124.36,364.92 125.94,365.56 125.94,365.56 "
       style="fill-rule:evenodd"
       id="polygon27" />
    <polygon
       transform="translate(155.99,216.14343)"
       points="3.335,414.15 2.7,411.93 0.794,400.34 0.794,397.95 0.318,395.57 0,377.79 1.906,356.19 2.542,353.49 2.7,350.63 7.465,330.94 7.465,330.94 30.493,337.77 27.793,347.77 27.476,348.57 23.823,367.31 22.394,381.28 22.711,404.47 23.029,406.37 23.188,408.44 23.665,411.14 23.665,412.09 24.776,417.33 25.411,418.92 27.159,425.27 27.793,426.54 28.27,428.13 29.382,430.19 29.541,430.67 30.811,433.21 31.446,434.16 32.082,435.43 33.035,436.39 33.669,437.34 34.464,438.29 35.099,439.24 35.894,440.04 36.846,440.83 37.481,441.62 38.434,442.42 40.181,443.37 40.499,443.85 40.975,444.17 41.928,444.48 43.675,445.44 44.787,445.91 42.246,453.38 42.246,453.38 39.864,461 36.846,460.2 31.764,457.98 26.999,455.12 21.441,450.36 17.629,446.07 16.518,444.48 15.247,443.06 8.576,430.67 5.559,422.73 5.082,420.66 4.288,418.6 3.812,416.22 3.494,415.42 "
       style="fill-rule:evenodd"
       id="polygon29" />
    <polygon
       transform="translate(155.99,216.14343)"
       points="77.503,258.21 77.345,258.37 76.074,259.16 72.581,262.34 72.581,262.5 67.657,267.26 61.781,274.09 60.828,275.68 59.398,277.11 59.081,277.9 58.287,278.7 54.952,283.62 54.952,283.62 53.681,285.36 51.616,289.18 51.299,289.49 44.946,300.77 44.628,301.88 33.669,327.76 33.669,327.92 32.717,330.31 30.493,337.77 18.899,334.28 18.899,334.28 7.465,330.94 10.8,319.98 10.958,319.98 16.041,306.64 16.834,305.22 17.153,304.26 19.535,299.18 20.329,297.91 21.917,294.42 23.346,292.19 24.458,289.81 31.446,278.85 32.717,277.27 33.035,276.95 35.894,272.82 48.599,258.85 48.916,258.69 51.934,255.83 53.681,254.56 54.952,253.29 55.428,253.29 57.016,251.86 61.939,248.52 69.404,244.55 69.404,244.4 74.645,242.33 76.392,241.85 77.663,241.38 78.298,241.38 86.238,239.95 88.78,239.95 95.133,240.74 98.786,242.97 101.48,245.03 102.44,246.14 102.6,246.14 101.01,246.46 96.562,248.2 95.292,249 94.814,249.16 94.021,249.32 92.909,249.79 91.48,250.11 90.526,250.75 89.256,251.22 88.78,251.54 87.986,251.54 86.874,252.33 85.604,252.81 83.221,254.08 82.903,254.4 80.998,255.83 79.728,256.46 78.615,257.42 "
       style="fill-rule:evenodd"
       id="polygon31" />
    <polygon
       transform="translate(155.99,216.14343)"
       points="435.64,344.76 435.64,345.71 435.48,346.19 435.32,347.93 434.69,350.79 434.53,352.38 432.62,361.43 432.14,362.86 431.51,365.72 429.92,365.56 428.33,364.92 428.65,363.34 430.08,359.05 430.4,357.62 430.88,356.19 431.19,354.6 431.67,353.17 431.99,351.75 432.94,348.89 433.1,347.3 433.58,345.87 433.58,345.39 436.27,329.99 436.27,328.4 436.59,326.97 437.07,323 437.07,319.98 437.23,318.56 437.23,317.28 437.38,315.7 437.38,313.16 437.54,311.57 437.54,307.6 437.38,306.32 437.38,304.9 437.23,303.63 437.23,300.45 437.07,299.66 437.07,297.12 436.75,295.85 435.96,289.65 435.64,288.54 435.32,286.16 433.26,278.22 433.26,278.22 434.84,283.62 435,284.89 435.64,287.11 435.96,289.65 436.27,290.92 436.75,294.58 437.07,295.69 437.07,297.12 437.23,298.39 437.23,299.66 437.38,300.45 437.54,300.93 437.7,302.2 437.7,303.63 438.02,306.32 438.02,323.16 437.7,325.7 437.7,327.13 437.23,331.58 437.23,333.01 437.07,334.44 437.07,335.86 436.27,340.31 436.27,341.9 "
       style="fill-rule:evenodd"
       id="polygon33" />
    <polygon
       transform="translate(155.99,216.14343)"
       points="344,461 343.84,461 348.29,445.76 350.67,446.55 352.74,446.87 353.85,446.87 355.91,447.18 357.02,447.02 358.29,447.02 360.52,446.71 360.68,446.71 361.79,446.55 366.87,445.12 368.14,444.48 369.41,444.17 374.97,441.31 376.24,440.36 377.83,439.56 378.78,438.93 379.1,438.61 383.39,435.43 384.66,434.16 386.25,433.05 389.1,430.51 390.54,428.92 391.96,427.65 393.24,426.22 394.82,424.79 394.82,424.63 403.08,414.63 408.16,407.17 408.32,407.01 419.12,387.79 428.33,364.92 429.92,365.56 429.92,365.56 431.51,365.72 430.88,368.1 430.88,368.58 424.2,389.38 423.88,389.86 423.25,391.92 415.95,408.44 414.67,410.5 414.52,410.98 404.99,427.02 394.03,440.83 384.98,449.25 378.78,453.85 370.52,458.46 363.85,460.68 363.7,460.84 358.45,461.95 353.05,462.27 349.56,461.95 347.65,461.95 344.16,461.16 "
       style="fill-rule:evenodd"
       id="polygon35" />
    <polygon
       transform="translate(155.99,216.14343)"
       points="327.48,369.53 327.01,374.29 326.53,376.52 326.53,404.47 327.32,410.18 327.64,411.14 327.64,412.09 328.12,413.68 328.28,415.58 328.75,417.17 329.07,418.92 329.71,420.5 330.02,422.25 330.66,423.68 331.61,426.54 333.2,430.19 333.52,430.67 334,431.94 335.42,434.16 336.06,435.43 336.85,436.39 337.49,437.34 339.08,439.24 341.46,441.62 342.41,442.42 344.16,443.37 344.32,443.85 348.61,445.91 346.22,453.38 346.22,453.38 343.84,461 340.67,460.2 335.58,457.98 329.55,454.01 326.69,451.63 323.99,448.93 322.88,447.5 321.45,446.07 320.5,444.48 319.22,443.06 317,439.72 316.84,439.09 313.35,432.42 309.38,422.73 308.9,420.5 308.27,418.44 307.79,416.22 307.47,415.42 304.46,397.8 304.61,364.45 305.09,361.59 305.25,358.89 308.11,343.01 308.42,342.38 311.12,330.94 311.12,330.94 334.16,337.77 331.46,347.77 331.46,348.41 327.48,369.37 "
       style="fill-rule:evenodd"
       id="polygon37" />
    <polygon
       transform="translate(155.99,216.14343)"
       points="376.24,262.5 375.45,263.45 374.02,264.72 371.79,267.1 371.64,267.42 366.87,272.66 365.92,274.09 364.49,275.68 363.54,277.11 362.74,277.9 362.26,278.85 361,280.28 360.04,282.03 358.93,283.62 358.77,283.62 355.44,289.18 355.12,289.49 352.1,294.73 351.78,295.53 350.99,296.8 345.27,308.23 334.16,337.77 322.88,334.28 322.88,334.28 311.12,330.94 314.62,319.98 314.62,319.98 320.5,305.22 321.13,304.26 322.08,301.72 329.71,287.43 332.09,283.94 332.41,282.98 336.54,277.27 336.85,276.95 347.49,263.77 352.58,258.85 352.74,258.85 355.91,255.83 357.66,254.56 358.93,253.29 359.4,253.29 361,251.86 362.74,250.75 364.33,249.48 365.92,248.52 366.08,248.36 373.22,244.55 373.38,244.4 378.62,242.33 380.37,241.85 381.64,241.38 382.12,241.38 384.02,241.06 385.77,240.58 387.52,240.42 389.26,240.11 390.22,240.11 391.01,239.95 397.84,240.58 399.11,240.9 404.03,243.92 406.58,246.3 404.99,246.62 400.54,248.2 398.79,249.16 396.73,249.95 395.46,250.27 393.08,251.22 392.6,251.54 391.96,251.7 390.69,252.49 388.31,253.6 381.32,258.21 381.32,258.37 380.05,259.16 377.83,261.23 376.4,262.34 "
       style="fill-rule:evenodd"
       id="polygon39" />
    <polygon
       points="91.003,365.72 90.844,365.56 90.209,362.38 89.891,361.43 90.05,361.11 90.368,359.84 90.526,358.42 90.526,358.1 91.003,356.83 91.48,355.08 91.48,354.92 93.703,349.52 93.862,348.73 94.656,347.46 96.562,343.01 96.721,343.01 97.991,340.63 98.15,340.15 104.5,329.04 104.98,328.4 106.57,325.54 122.13,303.94 123.08,302.99 128.48,295.85 129.12,295.37 135.31,287.9 135.31,287.9 155.17,266.79 155.48,266.63 165.65,257.1 169.62,254.08 171.36,252.49 178.04,247.89 182.16,245.82 186.14,245.03 186.45,245.03 186.45,247.41 186.77,249.79 185.66,249.95 185.18,250.11 184.39,250.75 183.44,251.22 180.1,253.92 175.18,259.32 175.02,259.64 170.57,265.04 169.46,266.79 169.14,267.1 164.22,274.09 164.06,274.41 159.14,281.4 158.82,282.03 153.9,289.49 153.58,289.81 148.5,297.75 148.5,297.91 143.25,305.69 142.94,306.32 120.38,338.88 120.07,339.52 118.64,341.1 116.89,343.49 115.94,344.44 114.19,346.98 108.16,353.81 107.84,354.28 106.57,355.4 105.14,357.14 98.15,363.34 95.927,364.92 95.609,365.08 94.656,365.4 92.274,365.72 91.639,365.72 91.162,365.88 91.162,366.04 91.162,366.04 "
       style="fill-rule:evenodd"
       id="polygon65"
       transform="matrix(2.4071339,0,0,1.1694634,12.3449,130.47768)" />
    <polygon
       transform="translate(155.99,216.14343)"
       points="362.74,345.23 331.46,244.08 330.66,239.79 330.5,237.72 329.71,233.44 328.91,222.16 330.02,213.11 330.82,210.73 333.84,207.87 333.84,207.87 337.33,209.3 339.08,211.05 340.67,213.11 345.59,223.27 348.92,233.91 349.24,235.82 350.04,238.04 351.15,244.55 351.78,246.62 361.31,338.56 "
       style="fill-rule:evenodd"
       id="polygon89" />
    <polyline
       transform="translate(155.99,216.14343)"
       points="333.84 207.87 337.33 209.3 339.08 211.05 340.67 213.11 345.59 223.27 348.92 233.91 349.24 235.82 350.04 238.04 351.15 244.55 351.78 246.62 361.31 338.56 362.74 345.23 353.85 313.31 353.05 311.41"
       style="fill:none;stroke:#000000;stroke-width:0.1212;stroke-linecap:square;stroke-miterlimit:10"
       id="polyline91" />
    <polyline
       transform="translate(155.99,216.14343)"
       points="353.05 311.41 338.28 269.64 330.66 239.79 330.5 237.72 329.71 233.44 328.91 222.16 330.02 213.11 330.82 210.73 333.84 207.87"
       style="fill:none;stroke:#000000;stroke-width:0.1212;stroke-linecap:square;stroke-miterlimit:10"
       id="polyline93" />
    <polygon
       transform="translate(155.99,216.14343)"
       points="307,173.09 308.27,172.3 309.38,171.98 310.49,171.5 311.76,171.35 312.87,170.87 317.48,170.23 328.12,170.23 343.37,172.62 344.48,173.09 363.54,176.43 365.92,176.43 368.3,176.75 375.29,176.75 372.91,176.75 326.69,188.66 323.2,189.13 322.08,189.13 319.7,189.45 316.21,189.45 313.83,189.13 312.71,189.13 311.44,188.81 310.33,188.66 305.57,186.91 304.3,186.27 303.02,185.32 301.92,184.05 300.48,180.88 300.48,180.88 301.6,177.38 302.55,176.11 303.66,175 304.77,174.2 "
       style="fill-rule:evenodd"
       id="polygon95" />
    <polyline
       transform="translate(155.99,216.14343)"
       points="300.48 180.88 301.6 177.38 302.55 176.11 303.66 175 304.77 174.2 307 173.09 308.27 172.3 309.38 171.98 310.49 171.5 311.76 171.35 312.87 170.87 317.48 170.23 328.12 170.23 343.37 172.62 344.48 173.09 363.54 176.43 365.92 176.43 368.3 176.75 375.29 176.75 372.91 176.75 357.82 179.76"
       style="fill:none;stroke:#000000;stroke-width:0.1212;stroke-linecap:square;stroke-miterlimit:10"
       id="polyline97" />
    <polyline
       transform="translate(155.99,216.14343)"
       points="357.82 179.76 326.69 188.66 323.2 189.13 322.08 189.13 319.7 189.45 316.21 189.45 313.83 189.13 312.71 189.13 311.44 188.81 310.33 188.66 305.57 186.91 304.3 186.27 303.02 185.32 301.92 184.05 300.48 180.88"
       style="fill:none;stroke:#000000;stroke-width:0.1212;stroke-linecap:square;stroke-miterlimit:10"
       id="polyline99" />
  </g>
</svg>
